# xmcd
#
# Track frame offsets:
#	150
#	17145
#	30117
#	49105
#	60085
#	73817
#	89695
#	108390
#	124915
#	143035
#	158370
#	182612
#	194612
#	205437
#	220517
#	241590
#	254417
#	270657
#	284857
#
# Disc length: 3964 seconds
#
# Revision: 1
# Processed by: cddbd v1.5.2PL0 Copyright (c) Steve Scherf et al.
# Submitted via: EasyCDDAExtractor 11.1.0.1
#
DISCID=110f7a13
DTITLE=Various Artist - Great Southern Blues And Rockabilly Festival
DYEAR=1999
DGENRE=Blues
TTITLE0=Chris Wilson - Sunbury '73
TTITLE1=Kenny Brown - Goin' Back To Mississippi
TTITLE2=Little Charlie And The Nightcats - Big And Fat
TTITLE3=Ronnie Dawson - Wiggle Waddle Woman
TTITLE4=Rockbottom James And The Detonators - That Girl Would Look Better (Sta
TTITLE4=nding Next To Me)
TTITLE5=Jan Preston - Back Door Woman
TTITLE6=Backsliders - Jack
TTITLE7=Mal Eastick - Jumpin' With Steve
TTITLE8=Michael Hill's Blues Mob - Papa Was A Rollin' Stone/Mama Sang The Blue
TTITLE8=s
TTITLE9=Bondi Cigars - Make Up Your Mind
TTITLE10=Johnnie Johnson - Johnnie's Boogie
TTITLE11=Red Rivers - Drop Girl
TTITLE12=Satellites - Give Me A Chance
TTITLE13=Damon Davies - Mr Hot And Cold
TTITLE14=The Mollys - La Llorona
TTITLE15=Chris Cain - Drinkin' Straight Tequila
TTITLE16=Andrew 'Jr Boy' Jones - Got To Win The Lottery
TTITLE17=Brown Brothers - Funky Mutha
TTITLE18=Billy Thorpe And The Aztecs - Let's Have A Party
EXTD=ID3G:   0
EXTT0=
EXTT1=
EXTT2=
EXTT3=
EXTT4=
EXTT5=
EXTT6=
EXTT7=
EXTT8=
EXTT9=
EXTT10=
EXTT11=
EXTT12=
EXTT13=
EXTT14=
EXTT15=
EXTT16=
EXTT17=
EXTT18=
PLAYORDER=
